<svg preserveAspectRatio="none" overflow="visible" style="display: block;" width="16.0001" height="16.0001" viewBox="0 0 16.0001 16.0001" fill="none" xmlns="http://www.w3.org/2000/svg">
<g id="setting-2">
<path id="Vector" d="M8.00003 10C9.1046 10 10 9.1046 10 8.00003C10 6.89546 9.1046 6.00002 8.00003 6.00002C6.89546 6.00002 6.00002 6.89546 6.00002 8.00003C6.00002 9.1046 6.89546 10 8.00003 10Z" stroke="#8D8D8D" stroke-miterlimit="10" stroke-linecap="round" stroke-linejoin="round"/>
<path id="Vector_2" d="M1.33334 8.5867V7.41336C1.33334 6.72003 1.90001 6.14669 2.60001 6.14669C3.80668 6.14669 4.30002 5.29335 3.69335 4.24668C3.34668 3.64668 3.55335 2.86668 4.16002 2.52001L5.31335 1.86001C5.84002 1.54667 6.52002 1.73334 6.83336 2.26001L6.90669 2.38668C7.50669 3.43335 8.49337 3.43335 9.10003 2.38668L9.17337 2.26001C9.4867 1.73334 10.1667 1.54667 10.6934 1.86001L11.8467 2.52001C12.4534 2.86668 12.66 3.64668 12.3134 4.24668C11.7067 5.29335 12.2 6.14669 13.4067 6.14669C14.1001 6.14669 14.6734 6.71336 14.6734 7.41336V8.5867C14.6734 9.28003 14.1067 9.85337 13.4067 9.85337C12.2 9.85337 11.7067 10.7067 12.3134 11.7534C12.66 12.36 12.4534 13.1334 11.8467 13.4801L10.6934 14.1401C10.1667 14.4534 9.4867 14.2667 9.17337 13.7401L9.10003 13.6134C8.50003 12.5667 7.51336 12.5667 6.90669 13.6134L6.83336 13.7401C6.52002 14.2667 5.84002 14.4534 5.31335 14.1401L4.16002 13.4801C3.55335 13.1334 3.34668 12.3534 3.69335 11.7534C4.30002 10.7067 3.80668 9.85337 2.60001 9.85337C1.90001 9.85337 1.33334 9.28003 1.33334 8.5867Z" stroke="#8D8D8D" stroke-miterlimit="10" stroke-linecap="round" stroke-linejoin="round"/>
<g id="Vector_3" opacity="0">
</g>
</g>
</svg>
